<svg xmlns="http://www.w3.org/2000/svg" viewBox="0 0 240 220" width="240" height="220" role="img" aria-label="IndyHost Laundry — Indianapolis">
  <title>IndyHost Laundry — stacked vertical lockup</title>
  <desc>Folded-linen mark centered above the IndyHost serif wordmark and a tracked-out INDIANAPOLIS · LAUNDRY tag.</desc>

  <!-- ===== Mark (folded linen stack), centered ===== -->
  <g transform="translate(60,8)">
    <ellipse cx="60" cy="98" rx="34" ry="4.5" fill="#1F2A2E" opacity="0.06"/>
    <path d="M30 70 L60 84 L90 70 L90 78 L60 92 L30 78 Z" fill="#D9CFC2"/>
    <path d="M30 60 L60 74 L90 60 L90 68 L60 82 L30 68 Z" fill="#E7DFD3"/>
    <path d="M60 28 L92 46 L60 64 L28 46 Z" fill="#FBF8F3"/>
    <path d="M60 64 L92 46 L92 54 L60 72 Z" fill="#EFE8DC"/>
    <path d="M28 46 L60 64 L60 72 L28 54 Z" fill="#F4EEE4"/>
    <path d="M60 28 L60 64" stroke="#3A5A4C" stroke-width="1.4" stroke-linecap="round" opacity="0.85"/>
    <path d="M44 37 L76 37" stroke="#3A5A4C" stroke-width="1" stroke-linecap="round" opacity="0.22"/>
    <path d="M28 46 L60 28 L92 46" fill="none" stroke="#FFFFFF" stroke-width="1" stroke-linecap="round" opacity="0.6"/>
  </g>

  <!-- ===== Wordmark, centered ===== -->
  <text x="120" y="172" text-anchor="middle"
        font-family="'Canela','Tiempos Headline','Playfair Display',Georgia,'Times New Roman',serif"
        font-size="44" font-weight="500" letter-spacing="0.2" fill="#1F2A2E">IndyHost</text>

  <!-- thin rule for hospitality polish -->
  <line x1="78" y1="188" x2="162" y2="188" stroke="#D9CFC2" stroke-width="1"/>

  <!-- ===== Tag ===== -->
  <text x="120" y="205" text-anchor="middle"
        font-family="'Helvetica Neue',Arial,'Segoe UI',system-ui,sans-serif"
        font-size="11" font-weight="600" letter-spacing="4" fill="#3A5A4C">INDIANAPOLIS<tspan fill="#8A8073"> · LAUNDRY</tspan></text>
</svg>
